<svg width="512" height="512" viewBox="0 0 512 512" fill="none" xmlns="http://www.w3.org/2000/svg">
  <circle cx="256" cy="256" r="240" stroke="#004d99" stroke-width="12"/>
  <path d="M256 80C159.35 80 81 158.35 81 255C81 351.65 159.35 430 256 430C352.65 430 431 351.65 431 255C431 158.35 352.65 80 256 80ZM256 400C176.04 400 111 334.96 111 255C111 175.04 176.04 110 256 110C335.96 110 401 175.04 401 255C401 334.96 335.96 400 256 400Z" fill="#004d99"/>
  <path d="M256 140C204.64 140 163 181.64 163 233C163 284.36 204.64 326 256 326C307.36 326 349 284.36 349 233C349 181.64 307.36 140 256 140ZM256 296C221.76 296 194 268.24 194 233C194 197.76 221.76 170 256 170C290.24 170 318 197.76 318 233C318 268.24 290.24 296 256 296Z" fill="#00bef3"/>
  <path d="M256 200C225.07 200 200 225.07 200 256C200 286.93 225.07 312 256 312C286.93 312 312 286.93 312 256C312 225.07 286.93 200 256 200Z" fill="#004d99"/>
  <path d="M256 340C256 340 160 260 160 190C160 137.04 202.96 94 256 94C309.04 94 352 137.04 352 190C352 260 256 340 256 340Z" fill="#1e90d8" opacity="0.2"/>
</svg>
